<?xml version="1.0" encoding="UTF-8" standalone="no"?>
<!-- Created with Inkscape (http://www.inkscape.org/) -->

<svg
   xmlns:dc="http://purl.org/dc/elements/1.1/"
   xmlns:cc="http://creativecommons.org/ns#"
   xmlns:rdf="http://www.w3.org/1999/02/22-rdf-syntax-ns#"
   xmlns:svg="http://www.w3.org/2000/svg"
   xmlns="http://www.w3.org/2000/svg"
   xmlns:xlink="http://www.w3.org/1999/xlink"
   xmlns:sodipodi="http://sodipodi.sourceforge.net/DTD/sodipodi-0.dtd"
   xmlns:inkscape="http://www.inkscape.org/namespaces/inkscape"
   width="210.19795mm"
   height="29.027061mm"
   viewBox="0 0 744.79586 102.85179"
   id="svg4859"
   version="1.1"
   inkscape:version="0.91 r13725"
   sodipodi:docname="logo_curriculum.svg">
  <defs
     id="defs4861">
    <linearGradient
       inkscape:collect="always"
       xlink:href="#linearGradient4138"
       id="linearGradient4144"
       x1="19.5"
       y1="419.50507"
       x2="943.35712"
       y2="419.50507"
       gradientUnits="userSpaceOnUse"
       gradientTransform="matrix(0.7859766,0,0,0.3147882,12.762916,-68.731944)" />
    <linearGradient
       inkscape:collect="always"
       id="linearGradient4138">
      <stop
         style="stop-color:#0064a6;stop-opacity:1"
         offset="0"
         id="stop4140" />
      <stop
         id="stop4154"
         offset="0.71803004"
         style="stop-color:#0064a6;stop-opacity:1" />
      <stop
         style="stop-color:#0064a6;stop-opacity:0"
         offset="1"
         id="stop4142" />
    </linearGradient>
  </defs>
  <sodipodi:namedview
     id="base"
     pagecolor="#ffffff"
     bordercolor="#666666"
     borderopacity="1.0"
     inkscape:pageopacity="0.0"
     inkscape:pageshadow="2"
     inkscape:zoom="0.35"
     inkscape:cx="365.96932"
     inkscape:cy="-417.14555"
     inkscape:document-units="px"
     inkscape:current-layer="layer1"
     showgrid="false"
     inkscape:window-width="1366"
     inkscape:window-height="706"
     inkscape:window-x="-8"
     inkscape:window-y="-8"
     inkscape:window-maximized="1"
     fit-margin-top="0"
     fit-margin-left="0"
     fit-margin-right="0"
     fit-margin-bottom="0" />
  <metadata
     id="metadata4864">
    <rdf:RDF>
      <cc:Work
         rdf:about="">
        <dc:format>image/svg+xml</dc:format>
        <dc:type
           rdf:resource="http://purl.org/dc/dcmitype/StillImage" />
        <dc:title></dc:title>
      </cc:Work>
    </rdf:RDF>
  </metadata>
  <g
     inkscape:label="Capa 1"
     inkscape:groupmode="layer"
     id="layer1"
     transform="translate(-9.0306778,-12.364868)">
    <rect
       style="fill:url(#linearGradient4144);fill-opacity:1;fill-rule:evenodd;stroke:none;stroke-width:1.4083277px;stroke-linecap:butt;stroke-linejoin:miter;stroke-opacity:1"
       id="rect3336"
       width="725.34412"
       height="67.454613"
       x="28.482422"
       y="29.595999" />
    <g
       transform="translate(9.03067,12.364876)"
       style="font-style:normal;font-variant:normal;font-weight:normal;font-stretch:normal;font-size:58.91993713px;line-height:125%;font-family:'Futura Md BT';-inkscape-font-specification:'Futura Md BT';letter-spacing:0px;word-spacing:0px;fill:#ffffff;fill-opacity:1;stroke:none;stroke-width:1px;stroke-linecap:butt;stroke-linejoin:miter;stroke-opacity:1"
       id="flowRoot4804">
      <path
         d="m 121.01929,64.124437 q 1.06447,1.265858 2.04264,1.841248 0.97816,0.57539 2.0714,0.57539 2.01387,0 2.81941,-1.323397 0.83432,-1.323397 0.83432,-4.919584 l 0,-30.639518 6.7896,0 0,32.854769 q 0,5.351127 -2.3591,7.882843 -2.3591,2.502947 -7.36499,2.502947 -2.76187,0 -5.00589,-1.064472 -2.21526,-1.064471 -4.20035,-3.308492 l 4.37296,-4.401734 z"
         id="path4898"
         inkscape:connector-curvature="0" />
      <path
         d="m 142.02103,68.58371 q 0,-1.582323 1.09324,-2.704333 1.09324,-1.122011 2.67556,-1.122011 1.58233,0 2.67557,1.122011 1.09324,1.12201 1.09324,2.704333 0,1.553553 -1.09324,2.646794 -1.09324,1.064471 -2.67557,1.064471 -1.58232,0 -2.67556,-1.064471 -1.09324,-1.093241 -1.09324,-2.646794 z"
         id="path4900"
         inkscape:connector-curvature="0" />
      <path
         d="m 211.75829,50.976775 q -0.11507,-0.489081 -0.374,-2.704333 -0.23016,-1.841248 -0.40277,-3.049567 -0.25893,1.438475 -0.74801,2.87695 -0.46031,1.438475 -1.17955,2.934489 L 198.03524,73.474525 187.01652,50.574002 q -0.69046,-1.409705 -1.20832,-2.733102 -0.48908,-1.323397 -0.86308,-2.618025 -0.0288,1.323397 -0.23016,2.790642 -0.17261,1.438475 -0.54662,3.020797 l -4.51681,20.74281 -6.30052,0 9.95425,-43.902257 12.42842,26.583018 q 0.2877,0.632929 0.86309,2.100174 0.60416,1.467244 1.43847,3.624957 0.60416,-1.812479 1.89879,-4.60312 0.34523,-0.748007 0.51785,-1.15078 l 12.14073,-26.554249 10.1844,43.902257 -6.35806,0 -4.66066,-20.800349 z"
         id="path4902"
         inkscape:connector-curvature="0" />
      <path
         d="m 253.41653,71.777124 -6.24298,0 0,-3.538648 q -1.66863,2.359099 -3.91265,3.509879 -2.21525,1.15078 -5.0922,1.15078 -5.78267,0 -9.11993,-3.941422 -3.3085,-3.970191 -3.3085,-10.846101 0,-6.530677 3.3948,-10.529638 3.39481,-4.02773 8.86101,-4.02773 3.33726,0 5.69636,1.409706 2.38787,1.380936 3.48111,3.99896 l 0,-4.459272 6.24298,0 0,27.273486 z m -6.07036,-13.723051 q 0,-4.229117 -1.9851,-6.588216 -1.95632,-2.359099 -5.49497,-2.359099 -3.53865,0 -5.58129,2.445407 -2.01386,2.416639 -2.01386,6.732064 0,4.344194 1.95633,6.703293 1.95632,2.359099 5.52374,2.359099 3.36603,0 5.4662,-2.560485 2.12895,-2.560486 2.12895,-6.732063 z"
         id="path4904"
         inkscape:connector-curvature="0" />
      <path
         d="m 268.29036,48.847832 q 1.00693,-2.704333 2.64679,-3.99896 1.66863,-1.294628 4.11404,-1.294628 1.3234,0 2.58925,0.316465 1.29463,0.316464 2.53172,0.920624 l -2.24402,5.293588 q -0.80555,-0.57539 -1.75494,-0.834316 -0.92063,-0.287695 -2.07141,-0.287695 -3.1071,0 -4.45927,2.502947 -1.35216,2.474177 -1.35216,8.343155 l 0,11.968112 -6.24299,0 0,-27.331025 6.24299,0 0,4.401733 z"
         id="path4906"
         inkscape:connector-curvature="0" />
      <path
         d="m 283.25049,32.708143 q 0,-1.582323 1.15078,-2.733103 1.17955,-1.15078 2.79065,-1.15078 1.66863,0 2.76187,1.122011 1.12201,1.093241 1.12201,2.761872 0,1.668631 -1.12201,2.819411 -1.12201,1.12201 -2.76187,1.12201 -1.6111,0 -2.79065,-1.15078 -1.15078,-1.179549 -1.15078,-2.790641 z m 0.83432,39.068981 0,-27.273486 6.24298,0 0,27.273486 -6.24298,0 z"
         id="path4908"
         inkscape:connector-curvature="0" />
      <path
         d="m 324.87996,71.777124 -6.24298,0 0,-3.538648 q -1.66863,2.359099 -3.91265,3.509879 -2.21525,1.15078 -5.0922,1.15078 -5.78267,0 -9.11993,-3.941422 -3.30849,-3.970191 -3.30849,-10.846101 0,-6.530677 3.3948,-10.529638 3.3948,-4.02773 8.861,-4.02773 3.33726,0 5.69636,1.409706 2.38787,1.380936 3.48111,3.99896 l 0,-4.459272 6.24298,0 0,27.273486 z M 318.8096,58.054073 q 0,-4.229117 -1.9851,-6.588216 -1.95632,-2.359099 -5.49497,-2.359099 -3.53865,0 -5.58128,2.445407 -2.01387,2.416639 -2.01387,6.732064 0,4.344194 1.95633,6.703293 1.95632,2.359099 5.52374,2.359099 3.36603,0 5.46621,-2.560485 2.12894,-2.560486 2.12894,-6.732063 z"
         id="path4910"
         inkscape:connector-curvature="0" />
      <path
         d="m 333.51081,71.777124 0,-27.273486 5.86898,0 0,4.459272 q 1.87002,-2.819411 4.40174,-4.114038 2.53171,-1.294628 6.15667,-1.294628 3.04957,0 5.17851,0.978163 2.15771,0.949394 3.36603,2.848181 0.71924,1.12201 1.0357,2.618024 0.31647,1.496014 0.31647,5.23605 l 0,16.542462 -6.30052,0 0,-14.010746 q 0,-5.379897 -1.3234,-7.134837 -1.29463,-1.783709 -4.63189,-1.783709 -2.18648,0 -3.91265,0.805546 -1.6974,0.805546 -2.67557,2.272791 -0.69046,0.978163 -0.97816,2.531716 -0.25892,1.524784 -0.25892,4.890815 l 0,12.428424 -6.24299,0 z"
         id="path4912"
         inkscape:connector-curvature="0" />
      <path
         d="m 389.58257,58.22669 q 0,-3.797574 -2.44541,-6.415599 -2.44541,-2.646794 -5.98406,-2.646794 -3.50988,0 -5.98405,2.646794 -2.44541,2.618025 -2.44541,6.415599 0,3.797574 2.44541,6.444368 2.47417,2.618024 5.98405,2.618024 3.50988,0 5.95529,-2.618024 2.47418,-2.646794 2.47418,-6.444368 z m -23.44715,-0.05754 q 0,-2.992028 1.12201,-5.638822 1.15078,-2.675564 3.27973,-4.746968 2.10017,-2.042635 4.83327,-3.135876 2.7331,-1.093241 5.72513,-1.093241 3.07834,0 5.78267,1.093241 2.7331,1.093241 4.89082,3.222184 2.15771,2.100174 3.27972,4.746968 1.12201,2.646794 1.12201,5.552514 0,3.020797 -1.12201,5.667591 -1.09324,2.646794 -3.22218,4.689429 -2.24402,2.157712 -4.97713,3.250953 -2.7331,1.122011 -5.7539,1.122011 -2.96326,0 -5.69636,-1.122011 -2.7331,-1.093241 -4.86204,-3.193414 -2.15772,-2.128943 -3.27973,-4.775737 -1.12201,-2.646794 -1.12201,-5.638822 z"
         id="path4914"
         inkscape:connector-curvature="0" />
      <path
         d="m 454.94689,39.900518 q -2.90572,-2.474177 -6.15668,-3.711266 -3.22218,-1.237088 -6.7896,-1.237088 -6.90468,0 -11.24887,4.430503 -4.31543,4.430503 -4.31543,11.47903 0,6.818372 4.20035,11.248875 4.22912,4.430503 10.64471,4.430503 3.74004,0 7.10607,-1.323397 3.3948,-1.323397 6.50191,-3.99896 l 0,7.738995 q -2.76187,1.985096 -6.01283,2.963259 -3.25095,0.978163 -7.04852,0.978163 -4.83328,0 -8.94732,-1.582323 -4.08527,-1.582322 -7.19237,-4.660659 -3.07834,-3.020797 -4.74697,-7.106066 -1.63986,-4.114039 -1.63986,-8.745929 0,-4.631889 1.63986,-8.688389 1.66863,-4.085269 4.8045,-7.163605 3.13588,-3.107106 7.19238,-4.689429 4.0565,-1.611092 8.7747,-1.611092 3.71126,0 7.07729,1.093241 3.36604,1.064472 6.53068,3.250954 l -0.374,6.90468 z"
         id="path4916"
         inkscape:connector-curvature="0" />
      <path
         d="m 462.42695,32.708143 q 0,-1.582323 1.15078,-2.733103 1.17955,-1.15078 2.79064,-1.15078 1.66863,0 2.76187,1.122011 1.12201,1.093241 1.12201,2.761872 0,1.668631 -1.12201,2.819411 -1.12201,1.12201 -2.76187,1.12201 -1.61109,0 -2.79064,-1.15078 -1.15078,-1.179549 -1.15078,-2.790641 z m 0.83431,39.068981 0,-27.273486 6.24298,0 0,27.273486 -6.24298,0 z"
         id="path4918"
         inkscape:connector-curvature="0" />
      <path
         d="m 475.25813,66.82877 5.17851,-2.819411 q 0.57539,2.042635 2.12895,3.107106 1.55355,1.064472 3.99896,1.064472 2.10017,0 3.27972,-0.949394 1.20832,-0.978163 1.20832,-2.646794 0,-2.215251 -4.25789,-3.797574 -1.43847,-0.517851 -2.21525,-0.863085 -4.37296,-1.812478 -6.1279,-3.682496 -1.72617,-1.870017 -1.72617,-4.545581 0,-3.653727 2.84818,-5.926517 2.87695,-2.272791 7.59515,-2.272791 3.16464,0 5.40866,1.17955 2.27279,1.15078 3.30849,3.308492 l -4.4305,3.049567 q -0.48908,-1.294627 -1.72617,-2.042634 -1.20832,-0.776777 -2.81941,-0.776777 -1.78371,0 -2.87695,0.863085 -1.06447,0.834316 -1.06447,2.244021 0,2.128944 4.83327,3.883883 1.52479,0.546621 2.3591,0.891855 3.76881,1.496014 5.3799,3.394801 1.63986,1.870017 1.63986,4.689428 0,4.085269 -2.96326,6.415599 -2.96326,2.30156 -8.17054,2.30156 -3.99896,0 -6.64575,-1.496014 -2.64679,-1.496014 -4.14281,-4.574351 z"
         id="path4920"
         inkscape:connector-curvature="0" />
    </g>
    <circle
       style="fill:#ff9500;fill-opacity:1;stroke:none;stroke-opacity:1"
       id="path4822"
       cx="60.456543"
       cy="63.790764"
       r="51.425896" />
    <circle
       style="fill:#ffffff;fill-opacity:1;stroke:none;stroke-opacity:1"
       id="path4826"
       cx="60.456543"
       cy="63.790764"
       r="37.40065" />
    <circle
       r="24.544178"
       cy="63.790764"
       cx="60.456543"
       id="circle4828"
       style="fill:#ff9500;fill-opacity:1;stroke:none;stroke-opacity:1" />
  </g>
</svg>
